<?xml version="1.0" standalone="no"?>
<!DOCTYPE svg PUBLIC "-//W3C//DTD SVG 20010904//EN"
 "http://www.w3.org/TR/2001/REC-SVG-20010904/DTD/svg10.dtd">
<svg version="1.0" xmlns="http://www.w3.org/2000/svg"
 width="512.000000pt" height="512.000000pt" viewBox="0 0 512.000000 512.000000"
 preserveAspectRatio="xMidYMid meet">

<g transform="translate(0.000000,512.000000) scale(0.100000,-0.100000)"
fill="#000000" stroke="none">
<path d="M285 5071 c-49 -23 -99 -74 -119 -123 -24 -56 -24 -820 0 -876 19
-46 68 -98 116 -123 36 -18 80 -19 1553 -19 1249 0 1521 2 1548 13 47 20 95
64 120 111 22 40 22 47 22 457 l0 416 -30 48 c-17 27 -50 63 -74 80 l-43 30
-1526 2 c-1471 3 -1528 2 -1567 -16z m1771 -350 c49 -23 107 -88 122 -140 26
-84 10 -158 -48 -224 -63 -71 -103 -82 -300 -82 -158 0 -168 1 -215 26 -95 48
-144 149 -124 254 13 68 49 119 112 155 l52 30 180 0 c153 0 186 -3 221 -19z
m-1398 -81 c130 -79 74 -280 -78 -280 -152 0 -208 201 -78 280 20 12 51 20 78
20 27 0 58 -8 78 -20z m520 0 c130 -80 74 -280 -79 -280 -82 0 -149 68 -149
150 0 115 130 189 228 130z m1498 -20 c43 -42 59 -95 44 -149 -35 -132 -215
-152 -277 -31 -29 56 -29 86 0 140 31 58 76 82 145 77 43 -3 59 -10 88 -37z
m507 14 c31 -22 67 -89 67 -126 0 -13 -10 -44 -23 -68 -57 -107 -207 -107
-264 0 -13 24 -23 55 -23 70 0 42 42 111 80 132 44 24 124 20 163 -8z"/>
<path d="M312 3545 c-62 -19 -106 -57 -136 -117 l-26 -52 0 -394 c0 -282 3
-406 12 -436 16 -54 90 -128 144 -144 31 -9 277 -12 1016 -12 l975 0 54 63
c153 177 374 349 557 431 l42 19 -5 46 c-5 36 -1 56 17 91 57 111 211 112 263
3 13 -28 25 -41 35 -38 27 8 214 35 243 35 l29 0 -4 173 c-3 144 -6 178 -22
207 -26 49 -64 88 -111 113 l-40 22 -1500 2 c-1231 1 -1508 -1 -1543 -12z
m1715 -350 c58 -17 117 -70 144 -129 54 -119 -17 -278 -140 -315 -60 -18 -353
-15 -399 5 -139 57 -189 232 -101 353 60 83 110 100 300 101 101 0 161 -5 196
-15z m-1407 -75 c20 -5 51 -26 70 -45 29 -30 34 -43 38 -92 3 -48 0 -64 -20
-92 -47 -69 -131 -89 -202 -48 -91 52 -102 171 -23 246 21 19 49 31 97 40 3 0
21 -4 40 -9z m520 0 c20 -5 51 -26 70 -45 29 -30 34 -43 38 -92 3 -48 0 -64
-20 -92 -47 -69 -131 -89 -202 -48 -115 66 -94 239 34 275 19 6 37 11 40 11 3
1 21 -4 40 -9z m1515 -19 c44 -24 79 -99 70 -152 -20 -117 -160 -166 -250 -88
-63 56 -71 144 -17 207 49 59 127 72 197 33z"/>
<path d="M3388 2704 c-111 -20 -260 -70 -363 -121 -378 -190 -638 -528 -726
-943 -31 -149 -31 -381 0 -530 116 -549 549 -969 1097 -1065 115 -20 335 -19
455 1 483 83 891 432 1049 898 53 159 65 235 65 431 0 196 -12 272 -65 431
-67 198 -173 368 -325 519 -202 203 -449 331 -729 380 -110 19 -352 19 -458
-1z m437 -363 c518 -109 861 -614 770 -1134 -70 -404 -389 -727 -793 -803
-119 -22 -327 -15 -432 16 -179 52 -329 140 -451 267 -192 199 -282 417 -282
688 0 271 90 489 282 688 144 150 346 256 551 290 73 12 271 6 355 -12z"/>
<path d="M3550 2055 c-46 -21 -68 -42 -93 -90 -20 -37 -22 -57 -25 -302 l-4
-263 -61 0 c-113 0 -183 -61 -175 -151 4 -40 27 -79 169 -289 102 -151 175
-250 194 -261 56 -35 134 -20 181 33 11 12 90 125 174 250 140 208 153 232
153 272 0 94 -62 146 -175 146 l-68 0 0 258 c0 248 -1 259 -22 302 -35 68 -86
103 -156 107 -37 2 -69 -2 -92 -12z"/>
<path d="M284 1996 c-60 -28 -107 -82 -123 -140 -8 -28 -11 -163 -9 -442 l3
-401 30 -49 c19 -30 49 -60 79 -79 l49 -30 863 -3 863 -2 -14 40 c-13 37 -46
188 -60 272 l-6 36 -152 4 c-132 3 -157 6 -192 25 -83 44 -128 119 -128 213 0
67 26 122 82 173 54 49 92 57 262 57 l147 0 17 75 c14 65 55 197 80 258 7 16
-38 17 -866 17 l-874 0 -51 -24z m365 -426 c57 -29 84 -78 79 -144 -7 -87 -64
-140 -150 -140 -154 0 -204 211 -68 282 54 27 89 28 139 2z m521 1 c104 -55
109 -206 8 -265 -44 -27 -119 -26 -156 0 -99 74 -95 207 8 261 52 28 94 29
140 4z"/>
</g>
</svg>
