<?xml version="1.0" standalone="no"?>
<!DOCTYPE svg PUBLIC "-//W3C//DTD SVG 20010904//EN"
 "http://www.w3.org/TR/2001/REC-SVG-20010904/DTD/svg10.dtd">
<svg version="1.0" xmlns="http://www.w3.org/2000/svg"
 width="512.000000pt" height="512.000000pt" viewBox="0 0 512.000000 512.000000"
 preserveAspectRatio="xMidYMid meet">

<g transform="translate(0.000000,512.000000) scale(0.100000,-0.100000)"
fill="#000000" stroke="none">
<path d="M2972 4296 c-43 -39 -82 -106 -114 -193 -17 -47 -21 -84 -23 -193 -1
-124 -23 -270 -44 -292 -3 -4 -40 30 -81 76 -41 46 -85 90 -98 97 -49 28 -114
-30 -93 -83 5 -12 73 -93 151 -178 78 -85 155 -174 171 -197 50 -72 158 -133
234 -133 18 0 163 -47 321 -105 159 -58 296 -105 306 -105 27 0 58 37 58 69 0
19 -39 103 -104 223 l-104 193 23 45 c82 163 106 316 63 398 -35 64 -112 174
-144 204 -41 38 -119 74 -189 88 -100 19 -153 40 -207 81 -29 21 -60 39 -70
39 -10 0 -35 -16 -56 -34z m133 -170 c33 -15 96 -36 140 -45 117 -26 159 -51
195 -115 17 -29 39 -61 50 -71 39 -35 43 -84 14 -177 -29 -93 -81 -208 -93
-208 -5 0 -14 7 -21 15 -7 8 -23 15 -37 15 -28 0 -73 -41 -73 -67 0 -61 -90
-134 -166 -134 -84 -1 -138 31 -175 103 -25 49 -24 81 10 223 25 103 33 123
60 147 17 15 35 28 40 28 4 0 21 -18 36 -40 15 -21 50 -57 79 -79 49 -38 149
-91 172 -91 23 0 64 42 64 65 0 42 -11 55 -71 85 -82 42 -128 86 -157 150 -13
30 -29 58 -35 62 -21 13 -71 8 -116 -12 -24 -11 -45 -20 -47 -20 -2 0 -1 19 2
43 7 46 53 160 63 154 3 -2 33 -16 66 -31z m397 -852 c21 -38 38 -72 38 -76 0
-6 -51 10 -209 67 -22 8 12 40 59 54 21 6 42 16 45 22 13 20 30 2 67 -67z"/>
<path d="M2357 4169 c-124 -30 -206 -128 -207 -247 0 -45 20 -103 125 -369
l124 -315 -232 -253 c-128 -140 -236 -254 -240 -254 -5 -1 -99 61 -210 138
-111 76 -217 146 -235 155 -46 24 -122 31 -178 17 -60 -15 -1078 -564 -1122
-605 -113 -105 -121 -277 -19 -379 63 -63 108 -82 197 -82 75 0 76 0 255 92
l180 91 210 -505 c227 -545 238 -566 328 -611 101 -50 216 -36 301 39 68 60
89 108 90 199 1 75 1 75 -174 498 -150 363 -179 426 -202 438 -42 22 -98 -8
-98 -53 0 -13 77 -209 170 -435 115 -278 170 -423 170 -448 0 -111 -149 -172
-226 -92 -17 18 -99 202 -235 531 -116 277 -209 504 -207 506 2 1 99 51 216
110 l213 109 138 -137 c126 -125 141 -137 174 -137 26 0 40 6 51 22 34 48 25
64 -146 235 -95 94 -174 164 -189 168 -21 5 -119 -41 -505 -239 -547 -280
-536 -276 -605 -207 -33 32 -39 45 -39 80 0 57 22 96 73 125 23 13 260 142
527 287 500 270 538 287 591 259 13 -7 195 -131 404 -275 209 -144 388 -264
398 -268 26 -10 66 9 78 37 22 48 6 68 -130 162 l-129 89 78 85 c43 47 155
168 249 270 94 102 174 195 177 207 4 15 -36 128 -121 345 -70 178 -131 334
-135 348 -13 45 27 111 78 131 14 5 86 2 192 -8 164 -17 169 -17 189 1 30 27
28 79 -3 104 -19 14 -55 21 -158 31 -73 7 -146 14 -163 16 -16 2 -47 -1 -68
-6z"/>
<path d="M3806 3949 c-33 -26 -35 -68 -3 -96 15 -13 49 -23 110 -32 296 -40
579 -210 731 -439 122 -184 182 -390 208 -720 18 -225 -7 -451 -74 -647 -179
-528 -649 -866 -1388 -999 -267 -47 -419 -59 -765 -60 -346 -1 -454 9 -660 59
-120 30 -147 31 -168 7 -22 -24 -22 -75 1 -95 22 -20 138 -52 282 -76 386 -66
961 -48 1415 44 923 186 1442 710 1494 1507 14 214 -9 472 -60 671 -87 340
-294 604 -594 757 -115 58 -249 104 -371 125 -112 20 -126 19 -158 -6z"/>
<path d="M1995 3651 c-260 -90 -440 -238 -531 -435 -22 -49 -24 -59 -12 -83
17 -35 59 -51 90 -34 13 6 39 42 57 78 41 79 122 169 205 228 81 57 129 80
239 116 50 16 99 37 109 46 40 36 3 114 -53 113 -13 -1 -60 -13 -104 -29z"/>
<path d="M3750 3653 c-29 -11 -50 -36 -50 -62 0 -14 67 -148 150 -301 163
-299 170 -318 128 -380 -51 -74 -35 -71 -467 -90 -349 -15 -393 -19 -411 -35
-25 -23 -26 -76 -2 -98 23 -21 83 -22 500 -2 337 15 358 19 439 81 76 58 115
181 89 282 -21 82 -300 586 -333 601 -13 6 -25 11 -26 10 -1 0 -9 -3 -17 -6z"/>
<path d="M3139 2599 c-137 -20 -289 -68 -419 -134 -104 -52 -180 -106 -264
-185 l-71 -67 -108 -12 c-238 -26 -573 -143 -597 -207 -13 -34 7 -76 42 -88
22 -8 41 -3 105 26 100 46 235 91 343 114 130 29 377 27 487 -3 102 -28 99
-28 128 2 58 57 20 105 -110 136 -50 11 -92 22 -93 24 -9 8 130 101 208 140
162 81 314 118 530 130 140 8 160 17 160 70 0 57 -21 65 -161 64 -68 -1 -149
-5 -180 -10z"/>
</g>
</svg>
